<svg width="24" height="24" viewBox="0 0 24 24" fill="none" xmlns="http://www.w3.org/2000/svg">
<path d="M23.9323 10.7191H2.64714C2.75812 9.89625 2.97715 9.09548 3.30226 8.32687C3.77747 7.20342 4.4585 6.1936 5.32606 5.32606C5.47811 5.17401 5.63455 5.02758 5.79515 4.88751C5.87167 4.96891 5.9494 5.04909 6.0286 5.1283C6.99197 6.09166 8.11403 6.848 9.3639 7.37674C10.6585 7.92405 12.033 8.202 13.4491 8.202H23.3867C23.0843 7.29509 22.6765 6.43634 22.1779 5.64017C20.0568 2.25284 16.2916 0 12 0C9.984 0 8.08418 0.496965 6.41654 1.37527C5.65118 1.77837 4.93469 2.26164 4.27835 2.8141C1.96952 4.75673 0.403341 7.55445 0.0677124 10.7191C0.0229782 11.14 0 11.5671 0 12C0 12.4329 0.0229782 12.8599 0.0677124 13.2809H21.3526C21.2416 14.1037 21.0226 14.9045 20.6975 15.6731C20.2222 16.7965 19.5413 17.8064 18.6737 18.6737C18.5216 18.8258 18.3652 18.9721 18.2046 19.1125C18.1281 19.0311 18.0503 18.9507 17.9711 18.8714C17.0077 17.9081 15.8857 17.1518 14.6359 16.623C13.3413 16.0757 11.967 15.7978 10.5506 15.7978H0.613322C0.915705 16.7047 1.32345 17.5634 1.82213 18.3596C3.94321 21.7472 7.70843 24 12 24C14.0157 24 15.9156 23.503 17.5832 22.6247C18.3486 22.2219 19.0653 21.7384 19.7216 21.1861C22.0305 19.243 23.5967 16.4455 23.9323 13.2809C23.9771 12.8599 24 12.4329 24 12C24 11.5671 23.9771 11.14 23.9323 10.7191ZM8.32687 3.30251C9.48878 2.81116 10.7247 2.56183 12 2.56183C13.2753 2.56183 14.511 2.81092 15.6728 3.30251C16.7963 3.77771 17.8061 4.45875 18.6737 5.32606C18.7764 5.42897 18.8766 5.53359 18.9741 5.64041H13.4491C11.3344 5.64041 9.4101 4.80856 7.98638 3.45455C8.09888 3.4015 8.21227 3.35091 8.32687 3.30251ZM15.6728 20.6975C14.511 21.1889 13.2753 21.4382 12 21.4382C10.7247 21.4382 9.48878 21.1889 8.32687 20.6975C7.20342 20.2222 6.1936 19.5413 5.32606 18.6737C5.22338 18.5711 5.12316 18.4664 5.02587 18.3596H10.5506C12.6654 18.3596 14.5897 19.1915 16.0134 20.5454C15.9009 20.5985 15.7875 20.6491 15.6728 20.6975Z" fill="white"/>
</svg>
