<svg width="33" height="33" viewBox="0 0 33 33" fill="none" xmlns="http://www.w3.org/2000/svg">
<path d="M16.5 23.1614C15.1279 23.1614 13.7866 22.7615 12.6457 22.0123C11.5049 21.2631 10.6157 20.1982 10.0906 18.9522C9.56551 17.7063 9.42812 16.3353 9.69581 15.0126C9.96349 13.69 10.6242 12.475 11.5944 11.5214C12.5647 10.5678 13.8008 9.91841 15.1466 9.65531C16.4923 9.39222 17.8872 9.52725 19.1549 10.0433C20.4225 10.5594 21.506 11.4334 22.2683 12.5547C23.0306 13.676 23.4375 14.9943 23.4375 16.3429C23.4474 17.241 23.2747 18.132 22.9296 18.9637C22.5845 19.7954 22.0738 20.5509 21.4276 21.186C20.7814 21.8211 20.0127 22.323 19.1665 22.6622C18.3204 23.0015 17.4138 23.1712 16.5 23.1614ZM16.5 11.7972C15.8888 11.7835 15.2812 11.8917 14.7138 12.1153C14.1463 12.3389 13.6309 12.6733 13.1987 13.0981C12.7664 13.523 12.4262 14.0296 12.1987 14.5873C11.9712 15.1449 11.8611 15.7422 11.875 16.3429C11.8611 16.9436 11.9712 17.5408 12.1987 18.0985C12.4262 18.6562 12.7664 19.1628 13.1987 19.5876C13.6309 20.0125 14.1463 20.3468 14.7138 20.5704C15.2812 20.794 15.8888 20.9023 16.5 20.8886C17.1112 20.9023 17.7188 20.794 18.2862 20.5704C18.8537 20.3468 19.3691 20.0125 19.8013 19.5876C20.2336 19.1628 20.5738 18.6562 20.8013 18.0985C21.0288 17.5408 21.1389 16.9436 21.125 16.3429C21.1389 15.7422 21.0288 15.1449 20.8013 14.5873C20.5738 14.0296 20.2336 13.523 19.8013 13.0981C19.3691 12.6733 18.8537 12.3389 18.2862 12.1153C17.7188 11.8917 17.1112 11.7835 16.5 11.7972Z" fill="url(#paint0_linear_469_321)"/>
<path d="M31.8837 10.7107L29.1549 6.065C28.8878 5.6095 28.4681 5.25922 27.9675 5.07394C27.467 4.88865 26.9164 4.87985 26.41 5.04903L23.5957 5.98431C23.1107 5.66338 22.6038 5.37556 22.0787 5.1229L21.4971 2.26024C21.3923 1.7448 21.1089 1.28101 20.6953 0.947822C20.2817 0.614635 19.7633 0.432653 19.2285 0.432862H13.771C13.2362 0.432653 12.7179 0.614635 12.3042 0.947822C11.8906 1.28101 11.6073 1.7448 11.5025 2.26024L10.9209 5.1229C10.3898 5.37279 9.87713 5.65873 9.38651 5.97863L6.58839 5.04903C6.08223 4.88044 5.53226 4.88955 5.03216 5.0748C4.53207 5.26006 4.11279 5.60999 3.84576 6.065L1.11701 10.7107C0.849701 11.1656 0.750968 11.6975 0.837606 12.2159C0.924244 12.7342 1.1909 13.2071 1.59223 13.5541L3.82495 15.4826C3.8053 15.769 3.78101 16.0531 3.78101 16.3429C3.78101 16.6361 3.79258 16.9258 3.81339 17.2134L1.59339 19.1317C1.19169 19.4783 0.924582 19.951 0.83752 20.4694C0.750458 20.9878 0.848815 21.5198 1.11586 21.975L3.84461 26.6207C4.11155 27.0764 4.53113 27.4269 5.03174 27.6124C5.53236 27.7979 6.08295 27.8069 6.58955 27.6378L9.40386 26.7014C9.88869 27.0229 10.3956 27.3111 10.9209 27.564L11.5025 30.4255C11.6073 30.9409 11.8906 31.4047 12.3042 31.7379C12.7179 32.0711 13.2362 32.2531 13.771 32.2529H18.8123V29.98H13.771L12.9501 25.9457C11.8144 25.5311 10.7602 24.9267 9.83398 24.1592L5.84839 25.4843L3.11964 20.8386L6.27042 18.1168C6.05486 16.9416 6.05212 15.7382 6.26233 14.5621L3.11964 11.8471L5.84839 7.20143L9.81086 8.51969C10.7437 7.75115 11.8061 7.14887 12.9501 6.74004L13.771 2.70572H19.2285L20.0495 6.74004C21.1851 7.15473 22.2393 7.75911 23.1655 8.5265L27.1511 7.20143L29.8799 11.8471L26.6447 14.6337L28.1686 16.3429L31.4061 13.5541C31.8078 13.2074 32.0749 12.7347 32.162 12.2163C32.2491 11.6979 32.1507 11.1659 31.8837 10.7107Z" fill="url(#paint1_linear_469_321)"/>
<path d="M24.5938 27.9117L21.5991 24.9684L19.9688 26.5707L24.5938 31.1164L32.6875 23.1614L31.0572 21.5591L24.5938 27.9117Z" fill="url(#paint2_linear_469_321)"/>
<defs>
<linearGradient id="paint0_linear_469_321" x1="21.3032" y1="9.37965" x2="14.6987" y2="26.041" gradientUnits="userSpaceOnUse">
<stop stop-color="#9907CC"/>
<stop offset="1" stop-color="#9907CC" stop-opacity="0.1"/>
</linearGradient>
<linearGradient id="paint1_linear_469_321" x1="27.3642" y1="0.0953641" x2="11.6056" y2="38.6359" gradientUnits="userSpaceOnUse">
<stop stop-color="#9907CC"/>
<stop offset="1" stop-color="#9907CC" stop-opacity="0.1"/>
</linearGradient>
<linearGradient id="paint2_linear_469_321" x1="30.7308" y1="21.4577" x2="26.9805" y2="33.8324" gradientUnits="userSpaceOnUse">
<stop stop-color="#9907CC"/>
<stop offset="1" stop-color="#9907CC" stop-opacity="0.1"/>
</linearGradient>
</defs>
</svg>
