<svg width="17" height="17" viewBox="0 0 17 17" fill="none" xmlns="http://www.w3.org/2000/svg">
<path fill-rule="evenodd" clip-rule="evenodd" d="M4.81946 0.0490596C5.69389 0.00891992 5.9727 0 8.20016 0C10.4276 0 10.7064 0.00966325 11.5801 0.0490596C12.4538 0.088456 13.0502 0.227458 13.572 0.4289C14.1184 0.634802 14.6142 0.956663 15.0242 1.37293C15.4416 1.78101 15.7637 2.27458 15.9694 2.82019C16.1722 3.34052 16.3109 3.93518 16.3511 4.80487C16.3914 5.67828 16.4003 5.95629 16.4003 8.17661C16.4003 10.3977 16.3906 10.6757 16.3511 11.5476C16.3116 12.4173 16.1722 13.012 15.9694 13.5323C15.7637 14.078 15.4411 14.5723 15.0242 14.981C14.6142 15.3973 14.1184 15.7184 13.572 15.9236C13.0502 16.1258 12.4538 16.264 11.5816 16.3042C10.7064 16.3443 10.4276 16.3532 8.20016 16.3532C5.9727 16.3532 5.69389 16.3436 4.81946 16.3042C3.94726 16.2648 3.35088 16.1258 2.82905 15.9236C2.28182 15.7184 1.78601 15.3967 1.37614 14.981C0.958956 14.5727 0.63612 14.0785 0.430136 13.533C0.228114 13.0127 0.0894563 12.418 0.0492009 11.5483C0.00894561 10.6749 0 10.3969 0 8.17661C0 5.95554 0.00969109 5.67754 0.0492009 4.80636C0.0887108 3.93518 0.228114 3.34052 0.430136 2.82019C0.636424 2.27464 0.959507 1.7805 1.37688 1.37218C1.78617 0.956292 2.28149 0.634388 2.82831 0.4289C3.35014 0.227458 3.94726 0.0891993 4.81946 0.0490596ZM11.5138 1.52085C10.649 1.48145 10.3896 1.47328 8.20016 1.47328C6.01072 1.47328 5.75129 1.48145 4.88655 1.52085C4.08666 1.55727 3.6528 1.69033 3.36356 1.80257C2.98113 1.95124 2.70754 2.1274 2.42054 2.41359C2.14847 2.67751 1.9391 2.99879 1.80776 3.3539C1.6952 3.64231 1.56176 4.07492 1.52523 4.87251C1.48572 5.73478 1.47752 5.99345 1.47752 8.17661C1.47752 10.3598 1.48572 10.6184 1.52523 11.4807C1.56176 12.2783 1.6952 12.7109 1.80776 12.9993C1.93896 13.3539 2.14844 13.6757 2.42054 13.9396C2.68518 14.2109 3.00797 14.4198 3.36356 14.5506C3.6528 14.6629 4.08666 14.7959 4.88655 14.8324C5.75129 14.8718 6.00997 14.8799 8.20016 14.8799C10.3903 14.8799 10.649 14.8718 11.5138 14.8324C12.3137 14.7959 12.7475 14.6629 13.0368 14.5506C13.4192 14.402 13.6928 14.2258 13.9798 13.9396C14.2519 13.6757 14.4614 13.3539 14.5926 12.9993C14.7051 12.7109 14.8386 12.2783 14.8751 11.4807C14.9146 10.6184 14.9228 10.3598 14.9228 8.17661C14.9228 5.99345 14.9146 5.73478 14.8751 4.87251C14.8386 4.07492 14.7051 3.64231 14.5926 3.3539C14.4435 2.97257 14.2668 2.69977 13.9798 2.41359C13.7151 2.14232 13.3929 1.93355 13.0368 1.80257C12.7475 1.69033 12.3137 1.55727 11.5138 1.52085ZM7.15277 10.6972C7.73771 10.94 8.38904 10.9728 8.99552 10.7899C9.602 10.6071 10.126 10.22 10.478 9.69466C10.83 9.16937 10.9883 8.53851 10.9256 7.90983C10.863 7.28115 10.5834 6.69365 10.1347 6.24767C9.84857 5.96259 9.50265 5.7443 9.12181 5.60852C8.74096 5.47274 8.33466 5.42285 7.93216 5.46243C7.52965 5.50202 7.14096 5.6301 6.79406 5.83745C6.44715 6.04481 6.15067 6.32627 5.92596 6.66159C5.70124 6.99692 5.55388 7.37775 5.49449 7.77667C5.4351 8.17559 5.46515 8.58268 5.58247 8.96864C5.6998 9.35459 5.90149 9.7098 6.17302 10.0087C6.44455 10.3076 6.77916 10.5428 7.15277 10.6972ZM5.21977 5.20478C5.61116 4.81452 6.07581 4.50494 6.58719 4.29373C7.09856 4.08252 7.64665 3.97381 8.20016 3.97381C8.75367 3.97381 9.30175 4.08252 9.81313 4.29373C10.3245 4.50494 10.7892 4.81452 11.1805 5.20478C11.5719 5.59505 11.8824 6.05836 12.0942 6.56827C12.306 7.07817 12.4151 7.62469 12.4151 8.17661C12.4151 8.72853 12.306 9.27504 12.0942 9.78495C11.8824 10.2949 11.5719 10.7582 11.1805 11.1484C10.3901 11.9366 9.31802 12.3794 8.20016 12.3794C7.0823 12.3794 6.01022 11.9366 5.21977 11.1484C4.42933 10.3603 3.98526 9.29126 3.98526 8.17661C3.98526 7.06196 4.42933 5.99296 5.21977 5.20478ZM13.3499 4.59971C13.4468 4.50848 13.5245 4.39878 13.5782 4.27709C13.6319 4.1554 13.6606 4.02421 13.6625 3.89127C13.6645 3.75833 13.6396 3.62636 13.5895 3.50316C13.5394 3.37997 13.465 3.26805 13.3707 3.17404C13.2764 3.08003 13.1642 3.00584 13.0406 2.95586C12.9171 2.90588 12.7847 2.88112 12.6514 2.88306C12.5181 2.885 12.3865 2.91359 12.2645 2.96714C12.1424 3.02069 12.0324 3.09811 11.9409 3.19482C11.763 3.38291 11.6656 3.63273 11.6693 3.89127C11.6731 4.14981 11.7778 4.3967 11.9612 4.57953C12.1445 4.76236 12.3921 4.86674 12.6514 4.87051C12.9107 4.87428 13.1612 4.77714 13.3499 4.59971Z" fill="white"/>
</svg>
