<svg width="26" height="38" viewBox="0 0 26 38" fill="none" xmlns="http://www.w3.org/2000/svg">
<rect x="6" y="29.3885" width="14" height="2.94857" fill="url(#paint0_linear_469_297)"/>
<rect x="9" y="34.3029" width="8" height="2.94857" fill="url(#paint1_linear_469_297)"/>
<path d="M13.0001 0.885712C9.55571 0.885712 6.25236 2.25406 3.81678 4.68974C1.3812 7.12541 0.0129013 10.4289 0.0129013 13.8735C-0.0749258 15.761 0.286638 17.6425 1.06785 19.363C1.84906 21.0835 3.02759 22.594 4.50649 23.7701C5.80521 24.978 6.50652 25.6663 6.50652 26.8612H9.10397C9.10397 24.4715 7.66239 23.1337 6.25977 21.8479C5.04592 20.9184 4.07852 19.7053 3.44229 18.3151C2.80605 16.9248 2.5204 15.3998 2.61035 13.8735C2.61035 11.1178 3.70499 8.47502 5.65345 6.52648C7.60191 4.57794 10.2446 3.48326 13.0001 3.48326C15.7557 3.48326 18.3984 4.57794 20.3468 6.52648C22.2953 8.47502 23.3899 11.1178 23.3899 13.8735C23.4784 15.4009 23.1907 16.9267 22.5522 18.317C21.9137 19.7073 20.9438 20.9198 19.7275 21.8479C18.3379 23.1467 16.8963 24.4455 16.8963 26.8612H19.4938C19.4938 25.6663 20.1821 24.978 21.4938 23.7571C22.9717 22.583 24.1497 21.0748 24.9309 19.3565C25.7121 17.6382 26.0742 15.759 25.9874 13.8735C25.9874 12.1679 25.6515 10.479 24.9988 8.90327C24.3461 7.32752 23.3895 5.89576 22.1835 4.68974C20.9775 3.48371 19.5458 2.52704 17.9701 1.87435C16.3945 1.22165 14.7057 0.885712 13.0001 0.885712Z" fill="url(#paint2_linear_469_297)"/>
<defs>
<linearGradient id="paint0_linear_469_297" x1="17.8462" y1="29.3573" x2="17.4946" y2="33.4958" gradientUnits="userSpaceOnUse">
<stop stop-color="#9907CC"/>
<stop offset="1" stop-color="#9907CC" stop-opacity="0.1"/>
</linearGradient>
<linearGradient id="paint1_linear_469_297" x1="15.7692" y1="34.2716" x2="15.163" y2="38.3499" gradientUnits="userSpaceOnUse">
<stop stop-color="#9907CC"/>
<stop offset="1" stop-color="#9907CC" stop-opacity="0.1"/>
</linearGradient>
<linearGradient id="paint2_linear_469_297" x1="22" y1="0.610204" x2="9.27043" y2="32.2027" gradientUnits="userSpaceOnUse">
<stop stop-color="#9907CC"/>
<stop offset="1" stop-color="#9907CC" stop-opacity="0.1"/>
</linearGradient>
</defs>
</svg>
