<svg width="15" height="15" viewBox="0 0 15 15" fill="none" xmlns="http://www.w3.org/2000/svg">
<path d="M1.76301 3.51589C2.7367 3.51589 3.52603 2.72883 3.52603 1.75795C3.52603 0.78706 2.7367 0 1.76301 0C0.789328 0 0 0.78706 0 1.75795C0 2.72883 0.789328 3.51589 1.76301 3.51589Z" fill="white"/>
<path d="M5.19075 4.84797V14.601H8.22767V9.77793C8.22767 8.50527 8.46779 7.27278 10.0503 7.27278C11.6111 7.27278 11.6304 8.72782 11.6304 9.85828V14.6018H14.669V9.25328C14.669 6.626 14.1017 4.60693 11.0221 4.60693C9.54349 4.60693 8.5524 5.41601 8.1471 6.18169H8.106V4.84797H5.19075ZM0.241737 4.84797H3.2835V14.601H0.241737V4.84797Z" fill="white"/>
</svg>
