<svg width="18" height="21" viewBox="0 0 18 21" fill="none" xmlns="http://www.w3.org/2000/svg">
<path fill-rule="evenodd" clip-rule="evenodd" d="M12.0362 6.21967C12.3291 6.51256 12.3291 6.98744 12.0362 7.28033L8.53621 10.7803C8.24332 11.0732 7.76845 11.0732 7.47555 10.7803L5.47555 8.78033C5.18266 8.48744 5.18266 8.01256 5.47555 7.71967C5.76845 7.42678 6.24332 7.42678 6.53621 7.71967L8.00588 9.18934L10.9756 6.21967C11.2684 5.92678 11.7433 5.92678 12.0362 6.21967Z" fill="#9907CC"/>
<path fill-rule="evenodd" clip-rule="evenodd" d="M0.0302477 7.60685C0.384575 3.30824 3.97673 0 8.28992 0H8.72186C13.035 0 16.6272 3.30824 16.9815 7.60685C17.1719 9.916 16.4586 12.2089 14.9919 14.0026L10.1989 19.8644C9.32386 20.9345 7.68791 20.9345 6.81291 19.8644L2.01985 14.0026C0.55319 12.2089 -0.160091 9.916 0.0302477 7.60685ZM8.28992 1.5C4.75738 1.5 1.81537 4.20948 1.52518 7.73008C1.36676 9.65192 1.96041 11.5602 3.18107 13.0531L7.97413 18.9149C8.24896 19.251 8.76281 19.251 9.03764 18.9149L13.8307 13.0531C15.0514 11.5602 15.645 9.65192 15.4866 7.73008C15.1964 4.20948 12.2544 1.5 8.72186 1.5H8.28992Z" fill="#9907CC"/>
</svg>
