<svg width="18" height="20" viewBox="0 0 18 20" fill="none" xmlns="http://www.w3.org/2000/svg">
<path d="M8.57143 0L0 2.85714V11.4286C0 16.1629 3.83705 20 8.57143 20C13.3058 20 17.1429 16.1629 17.1429 11.4286V2.85714L8.57143 0ZM15.5357 11.4286C15.5357 15.2746 12.4174 18.3929 8.57143 18.3929C4.72545 18.3929 1.60714 15.2746 1.60714 11.4286V4.0625L8.57143 1.60714L15.5357 4.0625V11.4286Z" fill="#9907CC"/>
<path d="M5.58902 9.17662C5.51454 9.1018 5.42602 9.04243 5.32853 9.00192C5.23104 8.96141 5.12651 8.94055 5.02094 8.94055C4.91537 8.94055 4.81084 8.96141 4.71335 9.00192C4.61587 9.04243 4.52734 9.1018 4.45286 9.17662C4.37804 9.2511 4.31867 9.33962 4.27816 9.43711C4.23765 9.5346 4.2168 9.63913 4.2168 9.7447C4.2168 9.85027 4.23765 9.9548 4.27816 10.0523C4.31867 10.1498 4.37804 10.2383 4.45286 10.3128L7.34125 13.2012L7.38813 13.248C7.45858 13.3186 7.54226 13.3746 7.63437 13.4128C7.72649 13.451 7.82523 13.4707 7.92496 13.4707C8.02468 13.4707 8.12343 13.451 8.21555 13.4128C8.30766 13.3746 8.39134 13.3186 8.46179 13.248L13.4506 8.25921C13.5212 8.18876 13.5772 8.10508 13.6154 8.01296C13.6536 7.92085 13.6733 7.8221 13.6733 7.72238C13.6733 7.62265 13.6536 7.52391 13.6154 7.43179C13.5772 7.33967 13.5212 7.256 13.4506 7.18555L13.3881 7.12305C13.3177 7.05247 13.234 6.99647 13.1419 6.95826C13.0498 6.92006 12.951 6.90039 12.8513 6.90039C12.7516 6.90039 12.6528 6.92006 12.5607 6.95826C12.4686 6.99647 12.3849 7.05247 12.3145 7.12305L7.92384 11.5114L5.58902 9.17662Z" fill="#9907CC"/>
</svg>
