<svg width="18" height="13" viewBox="0 0 18 13" fill="none" xmlns="http://www.w3.org/2000/svg">
<path d="M17.6231 1.88372C17.5212 1.52019 17.3227 1.19107 17.0487 0.931344C16.7669 0.663633 16.4216 0.472132 16.0453 0.374919C14.637 0.00371858 8.99475 0.00371867 8.99475 0.00371867C6.64257 -0.0230432 4.29096 0.0946623 1.9532 0.356171C1.57689 0.460567 1.23222 0.656346 0.949835 0.926095C0.672372 1.19306 0.471399 1.52226 0.366414 1.88297C0.114217 3.24159 -0.00831698 4.62111 0.000462825 6.00291C-0.00853596 7.38348 0.113698 8.76254 0.366414 10.1229C0.46915 10.4821 0.669373 10.8098 0.947585 11.0745C1.2258 11.3392 1.57225 11.5304 1.9532 11.6317C3.38026 12.0021 8.99475 12.0021 8.99475 12.0021C11.3499 12.0289 13.7045 11.9112 16.0453 11.6497C16.4216 11.5524 16.7669 11.3609 17.0487 11.0932C17.3226 10.8336 17.5209 10.5044 17.6223 10.1409C17.8811 8.78275 18.007 7.40267 17.998 6.02016C18.0175 4.6318 17.8918 3.24521 17.6231 1.88297V1.88372ZM7.20099 8.57057V3.43601L11.8954 6.00366L7.20099 8.57057Z" fill="white"/>
</svg>
