<svg width="151" height="31" viewBox="0 0 151 31" fill="none" xmlns="http://www.w3.org/2000/svg">
<path d="M94.7911 15.2637C95.6326 15.5297 96.2914 15.9776 96.7686 16.6075C97.2457 17.2235 97.4838 17.9865 97.4838 18.8963C97.4838 20.1842 96.9789 21.1782 95.9692 21.8781C94.9735 22.564 93.5149 22.907 91.5936 22.907H83.9785V8.20831H91.1729C92.968 8.20831 94.3424 8.55128 95.296 9.23722C96.2637 9.92319 96.7475 10.8541 96.7475 12.03C96.7475 12.7439 96.5725 13.3808 96.2216 13.9408C95.885 14.5008 95.4082 14.9417 94.7911 15.2637ZM87.3653 10.7701V14.2348H90.7522C91.5936 14.2348 92.2317 14.0878 92.6665 13.7938C93.1013 13.4998 93.3186 13.0658 93.3186 12.4919C93.3186 11.918 93.1013 11.491 92.6665 11.211C92.2317 10.9171 91.5936 10.7701 90.7522 10.7701H87.3653ZM91.3412 20.3452C92.2388 20.3452 92.9119 20.1982 93.3607 19.9042C93.8235 19.6103 94.0549 19.1553 94.0549 18.5394C94.0549 17.3215 93.1503 16.7125 91.3412 16.7125H87.3653V20.3452H91.3412ZM105.217 23.075C104.026 23.075 102.953 22.8299 101.999 22.34C101.06 21.8361 100.324 21.1431 99.7901 20.2612C99.2575 19.3793 98.9907 18.3784 98.9907 17.2585C98.9907 16.1386 99.2575 15.1377 99.7901 14.2558C100.324 13.3738 101.06 12.6879 101.999 12.1979C102.953 11.694 104.026 11.442 105.217 11.442C106.41 11.442 107.476 11.694 108.415 12.1979C109.355 12.6879 110.091 13.3738 110.624 14.2558C111.157 15.1377 111.423 16.1386 111.423 17.2585C111.423 18.3784 111.157 19.3793 110.624 20.2612C110.091 21.1431 109.355 21.8361 108.415 22.34C107.476 22.8299 106.41 23.075 105.217 23.075ZM105.217 20.3872C106.059 20.3872 106.746 20.1073 107.279 19.5473C107.826 18.9734 108.099 18.2104 108.099 17.2585C108.099 16.3066 107.826 15.5507 107.279 14.9907C106.746 14.4168 106.059 14.1298 105.217 14.1298C104.376 14.1298 103.682 14.4168 103.135 14.9907C102.588 15.5507 102.314 16.3066 102.314 17.2585C102.314 18.2104 102.588 18.9734 103.135 19.5473C103.682 20.1073 104.376 20.3872 105.217 20.3872ZM119.002 23.075C117.811 23.075 116.738 22.8299 115.783 22.34C114.844 21.8361 114.108 21.1431 113.575 20.2612C113.042 19.3793 112.775 18.3784 112.775 17.2585C112.775 16.1386 113.042 15.1377 113.575 14.2558C114.108 13.3738 114.844 12.6879 115.783 12.1979C116.738 11.694 117.811 11.442 119.002 11.442C120.194 11.442 121.26 11.694 122.199 12.1979C123.139 12.6879 123.876 13.3738 124.408 14.2558C124.942 15.1377 125.208 16.1386 125.208 17.2585C125.208 18.3784 124.942 19.3793 124.408 20.2612C123.876 21.1431 123.139 21.8361 122.199 22.34C121.26 22.8299 120.194 23.075 119.002 23.075ZM119.002 20.3872C119.843 20.3872 120.531 20.1073 121.063 19.5473C121.61 18.9734 121.884 18.2104 121.884 17.2585C121.884 16.3066 121.61 15.5507 121.063 14.9907C120.531 14.4168 119.843 14.1298 119.002 14.1298C118.16 14.1298 117.466 14.4168 116.919 14.9907C116.372 15.5507 116.099 16.3066 116.099 17.2585C116.099 18.2104 116.372 18.9734 116.919 19.5473C117.466 20.1073 118.16 20.3872 119.002 20.3872ZM131.209 23.075C130.27 23.075 129.351 22.963 128.453 22.739C127.556 22.501 126.841 22.2071 126.307 21.8571L127.401 19.5053C127.906 19.8272 128.516 20.0932 129.231 20.3032C129.947 20.4992 130.648 20.5972 131.335 20.5972C132.723 20.5972 133.417 20.2542 133.417 19.5683C133.417 19.2463 133.228 19.0154 132.85 18.8753C132.471 18.7353 131.889 18.6164 131.104 18.5184C130.178 18.3784 129.414 18.2174 128.811 18.0354C128.208 17.8534 127.682 17.5315 127.233 17.0695C126.799 16.6075 126.581 15.9496 126.581 15.0957C126.581 14.3817 126.784 13.7518 127.191 13.2059C127.611 12.6459 128.215 12.212 129 11.904C129.799 11.596 130.739 11.442 131.819 11.442C132.618 11.442 133.411 11.533 134.196 11.715C134.995 11.883 135.655 12.1209 136.173 12.4289L135.079 14.7597C134.084 14.1997 132.997 13.9198 131.819 13.9198C131.118 13.9198 130.592 14.0178 130.241 14.2138C129.891 14.4097 129.715 14.6617 129.715 14.9697C129.715 15.3197 129.904 15.5646 130.283 15.7046C130.662 15.8446 131.265 15.9776 132.092 16.1036C133.018 16.2575 133.775 16.4255 134.364 16.6075C134.953 16.7755 135.466 17.0905 135.9 17.5525C136.335 18.0144 136.552 18.6584 136.552 19.4843C136.552 20.1842 136.342 20.8072 135.921 21.3531C135.5 21.8991 134.883 22.326 134.07 22.634C133.27 22.928 132.317 23.075 131.209 23.075ZM145.877 22.361C145.553 22.599 145.154 22.781 144.678 22.907C144.215 23.0189 143.723 23.075 143.205 23.075C141.859 23.075 140.814 22.732 140.071 22.046C139.341 21.3601 138.977 20.3522 138.977 19.0223V14.3817H137.231V11.862H138.977V9.11123H142.258V11.862H145.077V14.3817H142.258V18.9803C142.258 19.4563 142.377 19.8272 142.616 20.0932C142.868 20.3452 143.218 20.4712 143.668 20.4712C144.186 20.4712 144.628 20.3312 144.993 20.0512L145.877 22.361Z" fill="white"/>
<path d="M148.959 23.075C148.385 23.075 147.901 22.879 147.508 22.487C147.116 22.095 146.919 21.6051 146.919 21.0172C146.919 20.4152 147.116 19.9322 147.508 19.5683C147.901 19.1903 148.385 19.0013 148.959 19.0013C149.535 19.0013 150.019 19.1903 150.411 19.5683C150.804 19.9322 151 20.4152 151 21.0172C151 21.6051 150.804 22.095 150.411 22.487C150.019 22.879 149.535 23.075 148.959 23.075Z" fill="#9907CC"/>
<path d="M39.0376 8.20831H45.7271C47.3259 8.20831 48.7353 8.51629 49.9554 9.13223C51.1896 9.7342 52.1432 10.5881 52.8163 11.694C53.5035 12.7999 53.8471 14.0878 53.8471 15.5576C53.8471 17.0275 53.5035 18.3154 52.8163 19.4213C52.1432 20.5272 51.1896 21.3881 49.9554 22.0041C48.7353 22.606 47.3259 22.907 45.7271 22.907H39.0376V8.20831ZM45.5588 20.1142C47.0314 20.1142 48.2024 19.7083 49.0719 18.8963C49.9554 18.0704 50.3972 16.9575 50.3972 15.5576C50.3972 14.1577 49.9554 13.0519 49.0719 12.2399C48.2024 11.4141 47.0314 11.0011 45.5588 11.0011H42.4455V20.1142H45.5588ZM67.2719 17.3005C67.2719 17.3425 67.2508 17.6364 67.2088 18.1824H58.647C58.8012 18.8823 59.1658 19.4353 59.7409 19.8412C60.3158 20.2472 61.0311 20.4502 61.8866 20.4502C62.4756 20.4502 62.9944 20.3662 63.4433 20.1982C63.9061 20.0162 64.3338 19.7363 64.7265 19.3583L66.4725 21.2481C65.4066 22.466 63.8499 23.075 61.8024 23.075C60.5262 23.075 59.3972 22.8299 58.4156 22.34C57.4339 21.8361 56.6766 21.1431 56.1437 20.2612C55.6107 19.3793 55.3443 18.3784 55.3443 17.2585C55.3443 16.1526 55.6037 15.1587 56.1227 14.2768C56.6555 13.3808 57.3778 12.6879 58.2894 12.1979C59.215 11.694 60.2458 11.442 61.3817 11.442C62.4896 11.442 63.4923 11.68 64.3899 12.156C65.2874 12.6319 65.9887 13.3178 66.4935 14.2138C67.0124 15.0957 67.2719 16.1246 67.2719 17.3005ZM61.4027 13.9198C60.6594 13.9198 60.0354 14.1298 59.5305 14.5497C59.0257 14.9697 58.7171 15.5436 58.6049 16.2716H64.1795C64.0673 15.5576 63.7588 14.9907 63.2539 14.5707C62.7491 14.1367 62.1319 13.9198 61.4027 13.9198ZM80.4845 11.61L75.7093 22.907H72.3225L67.5683 11.61H70.9551L74.0895 19.2953L77.3291 11.61H80.4845Z" fill="#9907CC"/>
<path d="M30.5118 13.6412H3.3749C3.51639 12.5941 3.79563 11.575 4.21013 10.5969C4.81599 9.16715 5.68425 7.88205 6.79032 6.778C6.98416 6.5845 7.18362 6.39815 7.38838 6.2199C7.48593 6.3235 7.58503 6.42553 7.686 6.52633C8.91423 7.75232 10.3448 8.71484 11.9383 9.38772C13.5887 10.0842 15.3412 10.438 17.1465 10.438H29.8162C29.4307 9.28382 28.9109 8.19096 28.2751 7.17775C25.5709 2.86699 20.7705 0 15.2991 0C12.7288 0 10.3067 0.632443 8.1806 1.75018C7.20482 2.26317 6.29136 2.87819 5.45456 3.58125C2.51099 6.05347 0.514229 9.61388 0.0863281 13.6412C0.0292954 14.177 0 14.7204 0 15.2713C0 15.8222 0.0292954 16.3657 0.0863281 16.9015H27.223C27.0815 17.9486 26.8023 18.9677 26.3878 19.9458C25.7818 21.3755 24.9136 22.6607 23.8076 23.7644C23.6137 23.9579 23.4142 24.1442 23.2095 24.3227C23.1119 24.2192 23.0128 24.1169 22.9118 24.016C21.6836 22.7901 20.2531 21.8275 18.6596 21.1546C17.0091 20.4581 15.257 20.1044 13.4512 20.1044H0.781939C1.16745 21.2586 1.6873 22.3514 2.32307 23.3646C5.02729 27.6757 9.82765 30.5427 15.2991 30.5427C17.8689 30.5427 20.2912 29.9102 22.4173 28.7925C23.3931 28.2798 24.3068 27.6645 25.1436 26.9617C28.0872 24.4889 30.0839 20.9288 30.5118 16.9015C30.5689 16.3657 30.5982 15.8222 30.5982 15.2713C30.5982 14.7204 30.5689 14.177 30.5118 13.6412ZM10.6161 4.2028C12.0975 3.57752 13.6732 3.26021 15.2991 3.26021C16.925 3.26021 18.5004 3.5772 19.9817 4.2028C21.414 4.80756 22.7014 5.67425 23.8076 6.778C23.9385 6.90896 24.0662 7.04211 24.1905 7.17805H17.1465C14.4505 7.17805 11.9972 6.11942 10.182 4.3963C10.3254 4.32879 10.47 4.26441 10.6161 4.2028ZM19.9817 26.3399C18.5004 26.9652 16.925 27.2824 15.2991 27.2824C13.6732 27.2824 12.0975 26.9652 10.6161 26.3399C9.18381 25.7351 7.89637 24.8684 6.79032 23.7644C6.65941 23.6337 6.53164 23.5006 6.4076 23.3646H13.4512C16.1474 23.3646 18.6007 24.4233 20.4159 26.1463C20.2724 26.2139 20.1279 26.2782 19.9817 26.3399Z" fill="#9907CC"/>
</svg>
