<svg width="30" height="23" viewBox="0 0 30 23" fill="none" xmlns="http://www.w3.org/2000/svg">
<path d="M2.66334 1.98267C0.930402 3.8224 0 5.88579 0 9.23061C0 15.1164 4.13381 20.3918 10.1453 23L11.6477 20.6827C6.03668 17.649 4.93971 13.7122 4.50227 11.2301C5.40575 11.6976 6.58853 11.8607 7.74774 11.7531C10.7829 11.4723 13.1754 8.98172 13.1754 5.88579C13.1754 4.32479 12.555 2.82771 11.4506 1.72391C10.3463 0.620108 8.84851 0 7.28675 0C6.42307 0.00754356 5.56952 0.186722 4.77578 0.527105C3.98203 0.867489 3.26396 1.36228 2.66334 1.98267ZM19.488 1.98267C17.755 3.8224 16.8246 5.88579 16.8246 9.23061C16.8246 15.1164 20.9584 20.3918 26.9699 23L28.4723 20.6827C22.8613 17.649 21.7643 13.7122 21.3269 11.2301C22.2304 11.6976 23.4132 11.8607 24.5724 11.7531C27.6075 11.4723 30 8.98172 30 5.88579C30 4.32479 29.3796 2.82771 28.2753 1.72391C27.1709 0.620108 25.6731 0 24.1114 0C23.2477 0.00754356 22.3941 0.186722 21.6004 0.527105C20.8067 0.867489 20.0886 1.36228 19.488 1.98267Z" fill="#9907CC"/>
</svg>
